<svg height="22" viewBox="0 0 64 64" width="29" xmlns="http://www.w3.org/2000/svg"><g id="coding-setting-application-computer-currency"><rect fill="#46f8ff" height="38" rx="2" width="58" x="3" y="3"/><path d="m61 5v34a2 2 0 0 1 -2 2h-54a2 2 0 0 1 -2-2v-3.067h53.36v-32.933h2.64a2 2 0 0 1 2 2z" fill="#00d7df"/><path d="m53 61h-50l6-9h38z" fill="#c6c5ca"/><path d="m61 61h-8l-6-9h8z" fill="#c6c5ca"/><path d="m53 61h-50l2.67-4h44.66z" fill="#898890"/><path d="m61 61h-8l-2.67-4h4.67l-3.33-5h3.33z" fill="#898890"/><path d="m27.79 41h8.42a16.958 16.958 0 0 0 -1.21 7 17.98 17.98 0 0 0 .65 4h-7.3a17.98 17.98 0 0 0 .65-4 16.958 16.958 0 0 0 -1.21-7z" fill="#57a4ff"/><path d="m28.85 45a17.2 17.2 0 0 0 -1.06-4h8.42a17.2 17.2 0 0 0 -1.06 4z" fill="#006df0"/><path d="m16 7h32v21h-32z" fill="#ebe5dd"/><path d="m48 7v21h-32v-3h29v-18z" fill="#c0ab91"/><path d="m41 30-2.6.65 1.38 2.3-2.83 2.83-2.3-1.38-.35 1.38v.01l-.3 1.21h-4l-.65-2.6-2.3 1.38-2.83-2.83 1.38-2.3-2.6-.65v-4l2.6-.65-1.38-2.3 2.83-2.83 2.3 1.38.65-2.6h4l.65 2.6 2.3-1.38 2.83 2.83-1.38 2.3 2.6.65z" fill="#c0ab91"/><path d="m41 30-2.6.65 1.38 2.3-2.83 2.83-2.3-1.38-.35 1.38v.01l-.3 1.21h-4l-.65-2.6-2.3 1.38-2.19-2.19a19.667 19.667 0 0 0 9.14-5.59 19.364 19.364 0 0 0 4.01-6.72l1.77 1.77-1.38 2.3 2.6.65z" fill="#a78966"/><circle cx="32" cy="28" fill="#ffde55" r="3"/><path d="m32 24a4 4 0 1 0 4 4 4 4 0 0 0 -4-4zm0 6a2 2 0 1 1 2-2 2 2 0 0 1 -2 2z"/><path d="m61.83 60.45-6-9a1 1 0 0 0 -.83-.45h-18.55a17.712 17.712 0 0 1 -.45-3.04 16.025 16.025 0 0 1 .92-5.96h22.08a3.009 3.009 0 0 0 3-3v-34a3.009 3.009 0 0 0 -3-3h-54a3.009 3.009 0 0 0 -3 3v34a3.009 3.009 0 0 0 3 3h22.08a16 16 0 0 1 .92 5.95 17.681 17.681 0 0 1 -.45 3.05h-18.55a1 1 0 0 0 -.83.45l-6 9a.963.963 0 0 0 -.05 1.02.984.984 0 0 0 .88.53h58a.984.984 0 0 0 .88-.53.963.963 0 0 0 -.05-1.02zm-1.83-24.45h-7v-11a1 1 0 0 0 -1-1h-3v-2h6v4a1 1 0 0 0 1 1h4zm0-11h-3v-4a1 1 0 0 0 -1-1h-7v-2h3a1 1 0 0 0 1-1v-7h7zm-56-20a1 1 0 0 1 1-1h54a1 1 0 0 1 1 1v3h-8a1 1 0 0 0 -1 1v7h-2v-9a1 1 0 0 0 -1-1h-32a1 1 0 0 0 -1 1v4h-2v-2a1 1 0 0 0 -1-1h-8zm37.24 20.03-1.29-.32.69-1.15a1.014 1.014 0 0 0 -.15-1.22l-2.83-2.83a1.014 1.014 0 0 0 -1.22-.15l-1.15.69-.32-1.29a1 1 0 0 0 -.97-.76h-4a1 1 0 0 0 -.97.76l-.32 1.29-1.15-.69a1.014 1.014 0 0 0 -1.22.15l-2.83 2.83a1.014 1.014 0 0 0 -.15 1.22l.69 1.15-1.29.32a1 1 0 0 0 -.76.97v1h-5v-19h30v19h-5v-1a1 1 0 0 0 -.76-.97zm-3.7 6.14.98 1.62-1.73 1.73-1.62-.98a1.057 1.057 0 0 0 -.9-.07 1.02 1.02 0 0 0 -.59.69l-.46 1.84h-2.44l-.46-1.84a1 1 0 0 0 -1.49-.62l-1.62.98-1.73-1.73.98-1.62a1 1 0 0 0 -.62-1.49l-1.84-.46v-2.44l1.84-.46a1 1 0 0 0 .62-1.49l-.98-1.62 1.73-1.73 1.62.98a1 1 0 0 0 1.49-.62l.46-1.84h2.44l.46 1.84a1 1 0 0 0 1.49.62l1.62-.98 1.73 1.73-.98 1.62a1 1 0 0 0 .62 1.49l1.84.46v2.44l-1.84.46a1 1 0 0 0 -.62 1.49zm-33.54-21.17h7v2a1 1 0 0 0 1 1h3v2h-7a1 1 0 0 0 -1 1v9h-3zm0 17h4a1 1 0 0 0 1-1v-9h6v2h-3a1 1 0 0 0 -1 1v16h-7zm1 13a1 1 0 0 1 -1-1v-1h8a1 1 0 0 0 1-1v-16h2v7a1 1 0 0 0 1 1h6v1a1 1 0 0 0 .76.97l1.29.32-.69 1.14a1.027 1.027 0 0 0 .15 1.23l2.83 2.83a1.014 1.014 0 0 0 1.22.15l1.15-.69.32 1.29a1 1 0 0 0 .97.76h4a1 1 0 0 0 .97-.76l.32-1.29 1.15.69a1.014 1.014 0 0 0 1.22-.15l2.83-2.83a1.027 1.027 0 0 0 .15-1.23l-.69-1.14 1.29-.32a1 1 0 0 0 .76-.97v-1h6a1 1 0 0 0 1-1v-2h2v11a1 1 0 0 0 1 1h8v1a1 1 0 0 1 -1 1zm29.38 11h-4.76a19.812 19.812 0 0 0 .38-2.96 17.955 17.955 0 0 0 -.81-6.04h5.62a18.013 18.013 0 0 0 -.81 6.05 19.85 19.85 0 0 0 .38 2.95zm-29.51 9 4.67-7h36.92l4.67 7zm48.67 0-4.67-7h5.59l4.67 7z"/><path d="m9 57h2v2h-2z"/><path d="m12 57h2v2h-2z"/><path d="m15 57h2v2h-2z"/><path d="m18 57h2v2h-2z"/><path d="m21 57h2v2h-2z"/><path d="m24 57h2v2h-2z"/><path d="m27 57h2v2h-2z"/><path d="m30 57h2v2h-2z"/><path d="m33 57h2v2h-2z"/><path d="m36 57h2v2h-2z"/><path d="m39 57h2v2h-2z"/><path d="m12 54h2v2h-2z"/><path d="m15 54h2v2h-2z"/><path d="m18 54h2v2h-2z"/><path d="m21 54h2v2h-2z"/><path d="m24 54h2v2h-2z"/><path d="m27 54h2v2h-2z"/><path d="m30 54h2v2h-2z"/><path d="m33 54h2v2h-2z"/><path d="m36 54h2v2h-2z"/><path d="m39 54h2v2h-2z"/><path d="m42 57h2v2h-2z"/><path d="m42 54h2v2h-2z"/><path d="m45 57h2v2h-2z"/><path d="m19 10h2v2h-2z"/><path d="m23 10h9v2h-9z"/><path d="m34 10h11v2h-11z"/><path d="m19 14h13v2h-13z"/><path d="m34 14h11v2h-11z"/></g></svg>